<?xml version="1.0" encoding="UTF-8"?>
<svg id="Layer_7" xmlns="http://www.w3.org/2000/svg" version="1.1" viewBox="0 0 360 360">
  <!-- Generator: Adobe Illustrator 30.1.0, SVG Export Plug-In . SVG Version: 2.1.1 Build 136)  -->
  <defs>
    <style>
      .st0 {
        fill: #6fc7ae;
      }

      .st1 {
        fill: #ee3665;
      }

      .st2, .st3 {
        fill: #fff;
      }

      .st4 {
        fill: #5ecae7;
      }

      .st5 {
        fill: #f99d1c;
      }

      .st6 {
        fill: #fee900;
      }

      .st7 {
        fill: #b286bc;
      }

      .st3 {
        font-family: CormorantGaramond-Italic, 'Cormorant Garamond';
        font-size: 10.06px;
        font-style: italic;
      }
    </style>
  </defs>
  <path class="st2" d="M68.16,206.24c-2.02,0-3.27,1.71-3.27,4.41v19.48c0,.15-.34.19-.42.11l-17.85-20.32v14.8c0,2.7,1.18,4.38,3.16,4.38.11,0,.11.46,0,.46-1.1,0-2.28-.08-3.69-.08-1.52,0-3.01.08-4.22.08-.15,0-.15-.46,0-.46,2.21,0,3.62-1.67,3.62-4.38v-16.1c-1.71-1.87-2.78-2.4-4-2.4-.11,0-.11-.46,0-.46.99,0,2.13.08,3.04.08,1.83,0,3.39-.08,4.19-.08.65,0,.69.53,1.9,1.98l13.17,15.18v-12.29c0-2.7-1.18-4.41-3.16-4.41-.11,0-.11-.46,0-.46,1.1,0,2.28.11,3.69.11s2.74-.11,3.84-.11c.11,0,.11.46,0,.46ZM87.95,223.6c-.19,1.48-.38,3.69-.38,5.4,0,.42-.11.57-.57.57h-16.82c-.15,0-.15-.46,0-.46,2.32,0,2.7-.42,2.7-2.63v-17.62c0-2.17-.38-2.63-2.7-2.63-.15,0-.15-.46,0-.46h16.13c.3,0,.38.11.38.34l.08,5.06c0,.11-.38.19-.46.04-.84-2.97-2.7-4.34-5.86-4.34h-1.14c-1.52,0-2.21.65-2.21,2.02v7.76h3.16c3.01,0,4.57-1.1,4.57-2.89,0-.15.42-.15.42,0,0,1.67-.04,2.4-.04,3.42,0,1.29.11,2.44.11,3.88,0,.11-.46.11-.46,0,0-2.06-1.6-3.35-4.64-3.35h-3.12v8.6c0,1.48.53,2.17,1.75,2.17h1.26c3.96,0,6.28-1.56,7.38-4.99.04-.15.46-.04.46.08ZM124.53,206.24c-1.86,0-3.62,1.71-4.68,4.49l-7.04,18.8c-.08.19-.76.19-.84,0l-4.87-10.31-3.84,10.31c-.08.19-.76.19-.84,0l-9.7-20.59c-1.07-2.25-1.45-2.7-2.89-2.7-.15,0-.15-.46,0-.46.88,0,.88.11,2.78.11,3.39,0,4.49-.11,5.52-.11.15,0,.15.46,0,.46-2.09,0-2.21.57-.88,3.39l6.85,14.54,2.4-6.28-4.22-8.94c-.8-1.67-1.52-2.7-2.44-2.7-.15,0-.15-.46,0-.46.76,0,.76.11,2.36.11,2.85,0,3.77-.11,4.6-.11.15,0,.15.46,0,.46-1.37,0-1.33.57,0,3.39l1.67,3.54.95-2.55c1.14-3.01,1.14-4.38-.11-4.38-.15,0-.15-.46,0-.46.76,0,.19.11,2.47.11,1.26,0,1.83-.11,2.97-.11.11,0,.11.46,0,.46-1.71,0-3.08,1.45-4.22,4.49l-1.41,3.77,4.57,9.63,4.91-13.13c1.03-2.74.19-4.76-1.71-4.76-.15,0-.15-.46,0-.46,1.33,0,2.36.11,4.26.11,1.41,0,2.09-.11,3.39-.11.11,0,.11.46,0,.46ZM156.04,206.4c.46.15.53.34.57.88l.49,5.29c0,.15-.34.23-.46.04-1.41-4.11-4.07-6.43-7.8-6.43-5.18,0-8.98,4.34-8.98,11.42s3.88,11.64,9.36,11.64c3.58,0,5.71-1.86,7.8-6.13.08-.15.42-.08.42.08l-.57,4.72c-.08.61-.11.69-.57.88-2.44.88-4.91,1.26-7.08,1.26-8.22,0-14.16-4.99-14.16-12.18s6.24-12.48,14.39-12.48c2.28,0,5.06.38,6.58,1.03ZM174.39,205.37c-6.17,0-13.4,4.07-13.4,12.33,0,6.7,4.76,12.33,12.07,12.33s13.35-5.52,13.35-12.6c0-6.12-4.53-12.06-12.02-12.06ZM174.31,229.08c-4.98,0-8.64-5.33-8.64-12.79,0-6.16,2.55-9.89,7.2-9.89,5.51,0,8.86,5.17,8.86,12.14s-3.19,10.54-7.42,10.54ZM196.39,226.34c0,1.87.3,2.17,2.17,2.17h1.29c3.96,0,7.08-2.28,8.03-5.86.04-.15.42-.08.42.08-.15,1.67-.34,4.3-.34,6.28,0,.42-.15.57-.57.57h-17.96c-.11,0-.11-.46,0-.46,2.32,0,2.74-.42,2.74-2.63v-17.62c0-2.17-.42-2.63-2.74-2.63-.11,0-.11-.46,0-.46,1.22,0,3.01.11,4.83.11s3.54-.11,4.83-.11c.15,0,.15.46,0,.46-2.32,0-2.7.49-2.7,2.66v17.43ZM224.28,205.37c-6.16,0-13.39,4.07-13.39,12.33,0,6.7,4.76,12.33,12.06,12.33s13.36-5.52,13.36-12.6c0-6.12-4.53-12.06-12.03-12.06ZM224.21,229.08c-4.99,0-8.64-5.33-8.64-12.79,0-6.16,2.55-9.89,7.19-9.89,5.52,0,8.87,5.17,8.87,12.14s-3.2,10.54-7.42,10.54ZM250.01,215.87c2.85,1.83,5.79,3.73,5.79,7.38,0,4.03-3.54,6.77-8.22,6.77-2.28,0-5.21-.76-6.09-1.52-.23-.15-.38-.27-.38-.72l-.11-6.05c-.04-.23.34-.27.42-.08,1.56,3.2,3.54,7.42,7.15,7.42,1.75,0,3.5-.76,3.5-3.62,0-3.58-2.78-5.37-5.48-7.15-2.66-1.75-5.29-3.42-5.29-6.81,0-4.26,4.19-6.13,7.99-6.13,1.83,0,3.84.38,4.91.84.49.23.57.46.57.76v5.59c0,.15-.34.27-.42.11-.61-1.26-2.02-6.47-6.09-6.47-1.9,0-3.46,1.1-3.46,3.42,0,2.89,2.55,4.53,5.21,6.24ZM269.61,215.87c2.85,1.83,5.79,3.73,5.79,7.38,0,4.03-3.54,6.77-8.22,6.77-2.28,0-5.21-.76-6.09-1.52-.23-.15-.38-.27-.38-.72l-.11-6.05c-.04-.23.34-.27.42-.08,1.56,3.2,3.54,7.42,7.15,7.42,1.75,0,3.5-.76,3.5-3.62,0-3.58-2.78-5.37-5.48-7.15-2.66-1.75-5.29-3.42-5.29-6.81,0-4.26,4.19-6.13,7.99-6.13,1.83,0,3.84.38,4.91.84.49.23.57.46.57.76v5.59c0,.15-.34.27-.42.11-.61-1.26-2.02-6.47-6.09-6.47-1.9,0-3.46,1.1-3.46,3.42,0,2.89,2.55,4.53,5.21,6.24ZM295.57,206.24c-.11,0-.11-.46,0-.46,1.26,0,2.55.11,4.15.11,1.37,0,2.7-.11,3.84-.11.11,0,.11.46,0,.46-2.02,0-3.16,1.71-3.16,4.41v10.58c0,5.4-3.81,8.87-9.48,8.87s-9.63-3.31-9.63-8.94v-12.29c0-2.17-.42-2.63-2.7-2.63-.15,0-.15-.46,0-.46,1.33,0,2.97.11,4.79.11s3.54-.11,4.83-.11c.15,0,.15.46,0,.46-2.28,0-2.7.53-2.7,2.7v10.88c0,6.24,2.66,8.87,6.85,8.87s6.74-2.62,6.74-7.42v-10.62c0-2.7-1.29-4.41-3.54-4.41ZM315.51,215.87c2.85,1.83,5.79,3.73,5.79,7.38,0,4.03-3.54,6.77-8.22,6.77-2.28,0-5.21-.76-6.09-1.52-.23-.15-.38-.27-.38-.72l-.11-6.05c-.04-.23.34-.27.42-.08,1.56,3.2,3.54,7.42,7.15,7.42,1.75,0,3.5-.76,3.5-3.62,0-3.58-2.78-5.37-5.48-7.15-2.66-1.75-5.29-3.42-5.29-6.81,0-4.26,4.19-6.13,7.99-6.13,1.83,0,3.84.38,4.91.84.49.23.57.46.57.76v5.59c0,.15-.34.27-.42.11-.61-1.26-2.02-6.47-6.09-6.47-1.9,0-3.46,1.1-3.46,3.42,0,2.89,2.55,4.53,5.21,6.24ZM145.61,183.46c0,1.87.3,2.17,2.17,2.17h1.29c3.96,0,7.08-2.28,8.03-5.86.04-.15.42-.08.42.08-.15,1.67-.34,4.3-.34,6.28,0,.42-.15.57-.57.57h-17.96c-.11,0-.11-.46,0-.46,2.32,0,2.74-.42,2.74-2.63v-17.62c0-2.17-.42-2.63-2.74-2.63-.11,0-.11-.46,0-.46,1.22,0,3.01.11,4.83.11s3.54-.11,4.83-.11c.15,0,.15.46,0,.46-2.32,0-2.7.49-2.7,2.66v17.43ZM174.16,184.64c-.42.19-.76.26-1.1.26-.96,0-1.53-.83-1.53-2.32v-6.73c0-2.97-1.67-4.23-3.76-4.23-2.78,0-7.88,2.06-7.88,4.53,0,.8.49,1.45,1.82,1.45,1.26,0,2.06-.57,2.21-2.14.08-.95.38-3.12,2.28-3.12,1.3,0,1.76,1.45,1.76,4.65v2.17l-3.43,1.25c-2.4.88-4.76,1.3-4.76,3.81,0,1.67,1.07,2.74,3.31,2.74,1.3,0,2.21-.34,3.35-1.22l1.64-1.14c.3,1.56,1.18,2.4,1.94,2.4.15,0,.31-.04.38-.08l3.92-1.87c.23-.11.04-.49-.15-.41ZM167.16,184.52c-.54.34-.88.42-1.26.42-.87,0-1.94-.61-1.94-1.94,0-1.71,1.71-2.17,2.36-2.44l1.64-.76v3.66c0,.19,0,.34.03.49l-.83.57ZM200.65,171.51c-3.88,0-8.45,2.39-8.45,7.65,0,4.3,2.97,8.03,7.8,8.03,4.45,0,8.37-3.12,8.37-7.81,0-3.99-2.85-7.87-7.72-7.87ZM201.14,186.39c-2.7,0-4.83-3.43-4.83-8.64,0-3.69,1.07-5.44,3.04-5.44,2.44,0,4.84,2.85,4.84,8.41,0,3.61-1.03,5.67-3.05,5.67ZM217.13,177.41c1.86,1.07,4,2.09,4,4.72,0,2.47-1.9,4.99-5.67,4.99-1.29,0-2.51-.23-3.96-1.03-.11-.11-.23-.23-.23-.46l-.08-3.77c0-.15.42-.19.46-.08.8,2.47,2.89,4.57,4.87,4.57,1.03,0,1.75-.61,1.75-1.94,0-2.09-1.64-3.04-3.16-3.92-1.79-.95-3.77-1.87-3.77-4.53,0-3.2,2.74-4.34,5.52-4.34,1.1,0,1.94.11,3.16.57.23.08.34.27.34.42,0,1.03-.08,2.06-.08,3.39,0,.15-.46.15-.46,0,0-1.41-2.02-3.65-4.19-3.65-.72,0-1.56.23-1.56,1.48,0,1.64,1.45,2.63,3.04,3.58ZM324.16,192h-133.94c.39-.87.61-1.8.61-2.76,0-3.96-3.62-4.07-7.04-4.11-2.86-.04-4.72-.08-4.72-2.21,0-.68.19-1.18.61-1.63.64.23,1.37.34,2.17.34,3.19,0,6.69-1.94,6.69-5.14,0-1.03-.38-1.98-1.02-2.74h.3c.91,0,1.9.27,2.82.65.19.15.45-.99.45-1.71,0-.61-.07-1.07-.3-1.07-1.52,0-2.82.46-4.11,1.33-1.07-.76-2.47-1.21-4.11-1.21-3.04,0-6.66,1.56-6.66,4.75,0,1.79,1.14,3.62,3.08,4.53-1.82,1.22-2.66,2.66-2.66,4.15,0,1.71,1.22,2.43,2.74,2.74-2.31,1.52-3.33,2.88-3.68,4.09H39.77c-.87,0-1.58.67-1.58,1.5s.71,1.5,1.58,1.5h135.99c.9,1.5,2.9,2.42,5.44,2.42s4.97-.94,6.72-2.42h136.24c.87,0,1.57-.68,1.57-1.5s-.7-1.5-1.57-1.5ZM181.31,172.46c1.53,0,3.5,1.63,3.5,5.1,0,2.47-.98,3.38-1.97,3.38-1.64,0-3.24-2.32-3.24-5.59,0-1.83.5-2.89,1.71-2.89ZM183.48,196.21c-2.43,0-4.83-1.68-4.83-5.1,0-1.49.46-2.44,1.29-3.05.65.08,1.34.08,1.98.12,3.39.03,5.79.07,5.79,3.5,0,.11,0,.22-.01.32-.05,1.14-.39,2.08-.96,2.78-.74.92-1.87,1.43-3.26,1.43Z"/>
  <text class="st3" transform="translate(126.71 242.28)"><tspan x="0" y="0">The Hustle. The Heat. The Rise</tspan></text>
  <g>
    <path class="st2" d="M189.15,124.23l-3.71-.58-3.42,1.75-3.42-1.75-3.71.58-4.04,5.34.29,7.41,3.04,4.5.8,4.46,2.74,1.12,3.71-2.08-.33-1.92-2.42-1.54-.96-1.71,4.3.84,4.3-.84-.96,1.71-2.42,1.54-.33,1.92,3.71,2.08,2.74-1.12.8-4.46,3.04-4.5.29-7.41-4.04-5.34ZM177.47,138.75l.25-4.94-3.37-1.74-1-1,3.29-.55,2.54,2-1.71,6.23ZM189.69,132.07l-3.37,1.74.25,4.94-1.71-6.23,2.54-2,3.29.55-1,1ZM182.03,146.31h-.02l-4.79,1.79.3,1.63,4.5,2.34,4.5-2.34.3-1.63-4.79-1.79Z"/>
    <polygon class="st7" points="191.52 159.77 193.31 146.77 193.06 137.56 198.31 149.56 191.52 159.77"/>
    <polygon class="st7" points="172.52 159.77 165.73 149.56 170.98 137.56 170.73 146.77 172.52 159.77"/>
    <polygon class="st0" points="201.94 140.81 199.73 151.52 193.86 131.07 201.94 140.81"/>
    <polygon class="st0" points="170.18 131.07 164.31 151.52 162.1 140.81 170.18 131.07"/>
    <polygon class="st6" points="195.06 115.36 185.65 123.11 189.02 115.07 195.06 115.36"/>
    <polygon class="st6" points="178.39 123.11 168.98 115.36 175.02 115.07 178.39 123.11"/>
    <polygon class="st5" points="204.52 142.27 193.86 129.57 202.23 132.19 204.52 142.27"/>
    <polygon class="st5" points="170.18 129.57 159.52 142.27 161.81 132.19 170.18 129.57"/>
    <polygon class="st1" points="189.73 113.11 182.02 125.07 174.31 113.11 182.02 114.99 189.73 113.11"/>
    <polygon class="st1" points="190.31 156.81 182.32 164.39 188.48 147.44 190.31 156.81"/>
    <polygon class="st1" points="181.72 164.39 173.73 156.81 175.56 147.44 181.72 164.39"/>
    <polygon class="st4" points="174.64 123.82 159.52 132.52 164.6 120.03 170.48 117.57 174.64 123.82"/>
    <polygon class="st4" points="204.52 132.52 189.4 123.82 193.56 117.57 199.44 120.03 204.52 132.52"/>
  </g>
</svg>